Coordinates
version=1
nRows=19
nColumns=63
inDegrees=yes

Units are S.I. units (second, meters, Newtons, ...)
If the header above contains a line with 'inDegrees', this indicates whether rotational values are in degrees (yes) or radians (no).

endheader
time	pelvis_tilt	pelvis_list	pelvis_rotation	pelvis_tx	pelvis_ty	pelvis_tz	hip_flexion_r	hip_adduction_r	hip_rotation_r	knee_angle_r	knee_angle_r_beta	ankle_angle_r	subtalar_angle_r	mtp_angle_r	hip_flexion_l	hip_adduction_l	hip_rotation_l	knee_angle_l	knee_angle_l_beta	ankle_angle_l	subtalar_angle_l	mtp_angle_l	L5_S1_Flex_Ext	L5_S1_Lat_Bending	L5_S1_axial_rotation	L4_L5_Flex_Ext	L4_L5_Lat_Bending	L4_L5_axial_rotation	L3_L4_Flex_Ext	L3_L4_Lat_Bending	L3_L4_axial_rotation	L2_L3_Flex_Ext	L2_L3_Lat_Bending	L2_L3_axial_rotation	L1_L2_Flex_Ext	L1_L2_Lat_Bending	L1_L2_axial_rotation	L1_T12_Flex_Ext	L1_T12_Lat_Bending	L1_T12_axial_rotation	Abs_r3	Abs_r2	Abs_r1	Abs_t1	Abs_t2	neck_flexion	neck_bending	neck_rotation	arm_flex_r	arm_add_r	arm_rot_r	elbow_flex_r	pro_sup_r	wrist_flex_r	wrist_dev_r	arm_flex_l	arm_add_l	arm_rot_l	elbow_flex_l	pro_sup_l	wrist_flex_l	wrist_dev_l
7.766667	3.834445	-3.652255	90.295434	0.258464	0.800553	0.528983	-0.948269	1.924321	-4.621851	12.015268	0.209706	28.826359	4.188553	0.000000	-4.844036	-4.160204	-8.010823	6.472212	0.112961	34.666009	10.836821	0.000000	0.027801	0.494461	0.107372	0.051629	0.657633	0.114083	0.045674	1.202233	0.114083	0.031773	1.202233	0.093951	0.025816	1.008305	0.087240	0.015885	0.765920	0.080529	0.198578	5.593444	0.597173	0.000000	0.000000	13.867341	-1.980847	3.642922	37.576818	-15.986050	-1.099446	101.409934	79.430016	-14.851999	-11.181528	51.484216	-7.769924	-3.050156	105.014711	78.040881	-36.209117	-10.718088
7.783333	3.982600	-3.870306	90.596015	0.257513	0.800187	0.529076	-0.706063	2.058926	-4.855681	12.002376	0.209481	28.760204	3.942439	0.000000	-4.505147	-4.300719	-7.546758	6.568367	0.114640	34.867747	10.849562	0.000000	0.041175	0.513158	0.038895	0.076465	0.682500	0.041326	0.067646	1.247691	0.041326	0.047059	1.247691	0.034033	0.038235	1.046431	0.031602	0.023527	0.794881	0.029171	0.294107	5.804942	0.216323	0.000000	0.000000	14.236135	-2.475347	3.677374	35.570197	-18.169674	-1.889441	101.987614	77.733692	-13.084970	-11.767183	52.277973	-7.978408	-3.033036	105.433412	78.907313	-35.592883	-9.563530
7.800000	4.116929	-4.044107	90.958871	0.256501	0.799831	0.529382	-0.489332	2.181002	-5.161926	12.037274	0.210090	28.670491	3.636085	0.000000	-4.167785	-4.437614	-7.089198	6.725592	0.117384	35.067439	10.866073	0.000000	0.048151	0.528662	-0.022032	0.089421	0.703120	-0.023410	0.079107	1.285388	-0.023410	0.055032	1.285388	-0.019278	0.044713	1.078047	-0.017901	0.027513	0.818897	-0.016524	0.343938	5.980329	-0.122538	0.000000	0.000000	14.687620	-2.944119	3.521977	33.514308	-20.384514	-2.750879	102.348102	76.475028	-11.182948	-11.860820	53.144865	-8.064275	-2.854532	105.602209	79.663468	-33.816635	-8.762360
7.816667	4.205950	-4.206515	91.372808	0.255506	0.799466	0.529843	-0.276856	2.261236	-5.531795	12.090742	0.211023	28.567046	3.283073	0.000000	-3.814529	-4.542590	-6.752217	6.916288	0.120712	35.263547	11.036023	0.000000	0.054510	0.535012	-0.075337	0.101230	0.711566	-0.080046	0.089554	1.300829	-0.080046	0.062299	1.300829	-0.065920	0.050618	1.090997	-0.061212	0.031147	0.828734	-0.056503	0.389358	6.052165	-0.419004	0.000000	0.000000	15.170445	-3.290580	3.211449	31.316266	-22.503867	-3.886714	102.614925	75.979841	-8.911442	-11.007200	54.051447	-8.109964	-2.322457	105.594473	80.255231	-31.853067	-8.464551
7.833333	4.256758	-4.355165	91.830129	0.254528	0.799117	0.530434	-0.073346	2.304559	-5.955503	12.153955	0.212127	28.459343	2.919349	0.000000	-3.454643	-4.616147	-6.453540	7.123695	0.124332	35.447693	11.268666	0.000000	0.059685	0.533709	-0.127628	0.110842	0.709833	-0.135604	0.098057	1.297660	-0.135604	0.068214	1.297660	-0.111674	0.055424	1.088339	-0.103697	0.034104	0.826715	-0.095721	0.426326	6.037421	-0.709826	0.000000	0.000000	15.656481	-3.547707	2.795535	29.009073	-24.449592	-5.308808	102.687431	76.602940	-6.365334	-9.241833	54.925140	-8.113030	-1.600717	105.407556	80.625874	-29.173388	-8.749373
7.850000	4.269923	-4.483845	92.325994	0.253551	0.798791	0.531115	0.114346	2.306964	-6.456689	12.225233	0.213371	28.372833	2.592574	0.000000	-3.099130	-4.653703	-6.163040	7.338177	0.128075	35.632626	11.534352	0.000000	0.061821	0.525658	-0.186530	0.114807	0.699125	-0.198189	0.101565	1.278084	-0.198189	0.070655	1.278084	-0.163214	0.057407	1.071921	-0.151556	0.035324	0.814244	-0.139898	0.441579	5.946347	-1.037427	0.000000	0.000000	16.151335	-3.746393	2.333439	26.681614	-26.190335	-6.823738	102.458378	77.849380	-3.954991	-6.871320	55.750516	-8.208486	-0.477123	105.218437	80.892789	-27.426475	-9.364909
7.866667	4.252411	-4.600786	92.839643	0.252575	0.798479	0.531839	0.292416	2.272804	-7.019194	12.297531	0.214632	28.317626	2.332218	0.000000	-2.751861	-4.656882	-5.874373	7.541181	0.131618	35.815873	11.820219	0.000000	0.063084	0.513247	-0.252499	0.117154	0.682618	-0.268280	0.103641	1.247909	-0.268280	0.072099	1.247909	-0.220937	0.058580	1.046613	-0.205155	0.036046	0.795019	-0.189374	0.450606	5.805952	-1.404324	0.000000	0.000000	16.638934	-3.949219	1.875275	24.477012	-27.715720	-8.151976	101.883918	78.674722	-1.959312	-4.617072	56.398657	-8.371151	0.798241	105.103039	81.144735	-25.944315	-10.000156
7.883333	4.220352	-4.705163	93.329352	0.251620	0.798180	0.532573	0.462145	2.219429	-7.582128	12.371500	0.215923	28.288935	2.132134	0.000000	-2.428867	-4.638600	-5.619992	7.719128	0.134724	35.994517	12.125486	0.000000	0.063594	0.499881	-0.316743	0.118100	0.664842	-0.336539	0.104478	1.215411	-0.336539	0.072681	1.215411	-0.277150	0.059053	1.019357	-0.257354	0.036337	0.774316	-0.237557	0.454243	5.654754	-1.761629	0.000000	0.000000	17.131528	-4.237906	1.424300	22.502636	-29.012619	-9.218841	101.027710	78.504790	-0.501643	-2.849776	56.810137	-8.564058	2.120531	105.049548	81.411298	-24.650237	-10.652735
7.900000	4.188283	-4.789730	93.774064	0.250691	0.797899	0.533224	0.597714	2.159955	-8.170352	12.421701	0.216800	28.286109	2.072123	0.000000	-2.154123	-4.610517	-5.370954	7.864671	0.137264	36.151764	12.384985	0.000000	0.063471	0.489234	-0.377670	0.117872	0.650681	-0.401274	0.104277	1.189524	-0.401274	0.072541	1.189524	-0.330461	0.058939	0.997646	-0.306857	0.036267	0.757824	-0.283252	0.453367	5.534314	-2.100486	0.000000	0.000000	17.611650	-4.611298	1.067865	20.786115	-30.018798	-10.057288	99.885545	77.241261	0.540407	-1.904996	56.905613	-8.805104	3.369676	105.142460	81.635853	-23.470960	-10.949828
7.916667	4.165301	-4.851513	94.132769	0.249842	0.797637	0.533730	0.701057	2.106048	-8.714642	12.465549	0.217565	28.304698	2.135270	0.000000	-1.944492	-4.580998	-5.151933	7.977767	0.139238	36.271907	12.560496	0.000000	0.063430	0.482701	-0.421318	0.117795	0.641992	-0.447650	0.104209	1.173639	-0.447650	0.072494	1.173639	-0.368653	0.058901	0.984323	-0.342321	0.036244	0.747704	-0.315989	0.453072	5.460408	-2.343245	0.000000	0.000000	18.071893	-5.055387	0.776274	19.255139	-30.763420	-10.696783	98.626195	74.509816	0.747792	-2.093510	56.651033	-9.023036	4.418700	105.318451	81.997865	-22.175146	-10.881313
7.933333	4.145848	-4.885334	94.374014	0.249159	0.797396	0.534051	0.763229	2.063356	-9.113339	12.495969	0.218096	28.323711	2.218923	0.000000	-1.820077	-4.547852	-5.033114	8.050627	0.140510	36.328804	12.694390	0.000000	0.062289	0.479753	-0.441987	0.115678	0.638071	-0.469611	0.102335	1.166471	-0.469611	0.071190	1.166471	-0.386739	0.057842	0.978312	-0.359115	0.035592	0.743137	-0.331490	0.444927	5.427060	-2.458200	0.000000	0.000000	18.507312	-5.525974	0.602144	17.810628	-31.223142	-11.192049	97.387494	70.567196	-0.599157	-3.248154	56.030887	-9.229770	5.212890	105.576649	82.420358	-20.889189	-10.479347
7.950000	4.136961	-4.887026	94.507273	0.248669	0.797182	0.534160	0.774386	2.045326	-9.341596	12.505323	0.218259	28.339777	2.290857	0.000000	-1.780679	-4.522471	-4.980874	8.098483	0.141345	36.325681	12.734852	0.000000	0.059808	0.479384	-0.435132	0.111069	0.637581	-0.462328	0.098258	1.165575	-0.462328	0.068354	1.165575	-0.380741	0.055538	0.977561	-0.353545	0.034174	0.742566	-0.326349	0.427202	5.422892	-2.420075	0.000000	0.000000	18.881864	-5.959594	0.441633	16.313634	-31.372900	-11.787350	96.284850	66.229930	-3.524222	-4.433469	55.044799	-9.367798	5.672910	105.810150	82.732774	-19.288622	-10.092166
7.966667	4.133239	-4.867763	94.540622	0.248424	0.797001	0.534060	0.747532	2.051999	-9.389538	12.494997	0.218079	28.354849	2.323371	0.000000	-1.808550	-4.504827	-4.994445	8.128944	0.141877	36.265969	12.688369	0.000000	0.057162	0.479308	-0.401867	0.106155	0.637479	-0.426983	0.093911	1.165388	-0.426983	0.065330	1.165388	-0.351633	0.053080	0.977404	-0.326517	0.032662	0.742447	-0.301400	0.408300	5.422023	-2.235061	0.000000	0.000000	19.169079	-6.246190	0.301673	14.738269	-31.121293	-12.863741	95.315543	62.282394	-7.139883	-5.031525	53.700082	-9.464475	5.783613	105.980858	82.868268	-17.470698	-9.870366
7.983333	4.118230	-4.832085	94.476211	0.248466	0.796877	0.533760	0.686048	2.069289	-9.249191	12.459118	0.217453	28.378274	2.305627	0.000000	-1.898470	-4.479832	-5.056754	8.135461	0.141991	36.150270	12.551567	0.000000	0.053708	0.476160	-0.347233	0.099742	0.633292	-0.368935	0.088237	1.157735	-0.368935	0.061383	1.157735	-0.303829	0.049874	0.970985	-0.282127	0.030689	0.737571	-0.260425	0.383633	5.386414	-1.931208	0.000000	0.000000	19.350389	-6.352620	0.139092	13.129703	-30.462255	-14.655672	94.340411	59.098075	-10.593342	-5.027826	51.981790	-9.615336	5.552048	106.083212	82.762614	-15.558749	-9.915575
8.000000	4.097503	-4.793113	94.356047	0.248736	0.796818	0.533284	0.604221	2.100448	-8.982177	12.398759	0.216399	28.398882	2.237625	0.000000	-2.019656	-4.455816	-5.136753	8.128803	0.141874	36.008672	12.346637	0.000000	0.050932	0.470150	-0.278730	0.094587	0.625299	-0.296151	0.083677	1.143122	-0.296151	0.058211	1.143122	-0.243889	0.047296	0.958729	-0.226468	0.029103	0.728262	-0.209048	0.363806	5.318426	-1.550215	0.000000	0.000000	19.410362	-6.245316	-0.068210	11.487056	-29.523335	-17.155299	93.184888	56.610858	-13.469114	-4.577698	49.863260	-9.890206	4.992193	106.132052	82.595791	-13.728829	-9.987338
8.016667	4.079558	-4.766271	94.160485	0.249246	0.796827	0.532678	0.526755	2.149370	-8.590246	12.326377	0.215136	28.416288	2.138420	0.000000	-2.152656	-4.439337	-5.260927	8.108422	0.141519	35.850585	12.091094	0.000000	0.049152	0.463846	-0.218418	0.091279	0.616915	-0.232069	0.080751	1.127795	-0.232069	0.056175	1.127795	-0.191116	0.045642	0.945874	-0.177465	0.028085	0.718497	-0.163813	0.351085	5.247116	-1.214775	0.000000	0.000000	19.349812	-5.935026	-0.184792	10.047132	-28.336116	-20.302878	91.609413	55.298219	-15.430704	-3.789222	47.204027	-10.343156	3.948596	106.219668	82.665708	-12.263941	-9.674170
8.033333	4.063446	-4.756344	93.897884	0.249957	0.796883	0.531971	0.461269	2.209652	-8.105710	12.249839	0.213800	28.426995	2.016767	0.000000	-2.289491	-4.426253	-5.413283	8.069724	0.140843	35.684475	11.784968	0.000000	0.048478	0.458711	-0.168656	0.090028	0.610086	-0.179197	0.079644	1.115311	-0.179197	0.055405	1.115311	-0.147574	0.045016	0.935404	-0.137033	0.027700	0.710544	-0.126492	0.346271	5.189035	-0.938014	0.000000	0.000000	19.189245	-5.445781	-0.155172	8.741463	-27.147710	-23.469530	89.629101	53.474498	-16.913625	-3.055421	44.028150	-11.017921	2.504406	106.252605	82.778214	-11.165727	-9.058613
8.050000	4.066247	-4.773076	93.622360	0.250795	0.796955	0.531224	0.420496	2.294359	-7.602596	12.178372	0.212553	28.422198	1.887782	0.000000	-2.395368	-4.442576	-5.586926	8.038533	0.140299	35.535425	11.505857	0.000000	0.049650	0.456008	-0.136240	0.092205	0.606491	-0.144755	0.081570	1.108739	-0.144755	0.056745	1.108739	-0.119210	0.046105	0.929892	-0.110695	0.028370	0.706357	-0.102180	0.354646	5.158458	-0.757724	0.000000	0.000000	18.979848	-4.843704	-0.096814	7.548437	-26.006419	-26.632490	87.200203	50.482377	-17.202188	-2.473667	40.385354	-11.809249	0.628170	106.156962	83.404719	-10.326693	-7.650221
8.066667	4.098271	-4.819025	93.323715	0.251722	0.797040	0.530502	0.411551	2.411325	-7.059209	12.111451	0.211385	28.361061	1.700901	0.000000	-2.465448	-4.493127	-5.791825	8.013415	0.139860	35.388707	11.238535	0.000000	0.051999	0.460022	-0.124404	0.096567	0.611829	-0.132180	0.085429	1.118498	-0.132180	0.059430	1.118498	-0.108854	0.048286	0.938077	-0.101079	0.029712	0.712574	-0.093303	0.371424	5.203862	-0.691900	0.000000	0.000000	18.755223	-4.127257	0.187772	6.497999	-25.036998	-29.644125	84.385882	47.367891	-17.039501	-2.018991	36.360306	-12.724544	-1.578361	105.760278	84.225363	-9.883081	-5.812186
